#!OML:ASF E:\motion texture\Top Level 1\Subject 1\Session 1\male.ASF
:FULLY-SPECIFIED
:DEGREES
228
root -6.47642 15.1186 5.24356 25.06 -69.6875 -20.2641
lowerback 17.9246 1.74712 -3.49683
upperback 6.36562 1.01977 -5.58727
thorax -3.16714 0.355669 -4.15562
lowerneck -13.7075 -4.53831 -13.5655
upperneck 0.453335 -4.34245 8.73528
head 2.81257 -1.92639 4.57834
rclavicle -1.27222e-014 -1.90833e-014
rhumerus -29.9292 23.191 -99.9782
rradius 66.2228
rwrist 11.63
rhand -34.1493 -31.8983
rfingers 7.12502
rthumb -7.32367 -61.7516
lclavicle -1.27222e-014 -1.90833e-014
lhumerus 22.0346 24.9147 64.6944
lradius 60.1769
lwrist -16.7641
lhand -22.7838 23.241
lfingers 7.12502
lthumb 3.65187 53.1894
rfemur -18.9062 -17.997 30.0948
rtibia 83.2041
rfoot -7.9634 -26.4161
rtoes 10.8485
lfemur -57.0093 1.78437 6.65354
ltibia 58.6311
lfoot -10.7198 -16.3601
ltoes -16.8629
229
root -6.62841 15.0887 5.2292 24.3418 -69.0105 -19.4579
lowerback 18.3573 1.72063 -3.53345
upperback 6.46368 0.951548 -5.52792
thorax -3.29366 0.319742 -4.0693
lowerneck -13.6418 -4.74078 -13.6133
upperneck 0.148734 -4.61794 8.92461
head 2.74757 -2.05623 4.62678
rclavicle 1.11319e-014 6.36111e-015
rhumerus -29.0566 21.7598 -98.9181
rradius 64.6107
rwrist 10.7577
rhand -33.1244 -32.3487
rfingers 7.12502
rthumb -6.33435 -62.234
lclavicle 1.11319e-014 6.36111e-015
lhumerus 20.8579 24.4008 66.3862
lradius 62.4352
lwrist -17.0954
lhand -22.9535 23.4721
lfingers 7.12502
lthumb 3.48797 53.4233
rfemur -20.1415 -18.4833 30.0045
rtibia 84.9855
rfoot -7.97032 -25.443
rtoes 11.9547
lfemur -57.3333 1.7713 6.57225
ltibia 59.4453
lfoot -11.3651 -16.7431
ltoes -16.7442
230
root -6.77679 15.0658 5.21547 23.8173 -68.4707 -18.8153
lowerback 18.7225 1.71173 -3.56313
upperback 6.5598 0.91327 -5.45651
thorax -3.3848 0.298673 -3.97741
lowerneck -13.6078 -4.93525 -13.6491
upperneck -0.140415 -4.8803 9.1084
head 2.69101 -2.1798 4.67219
rclavicle 5.56597e-014 2.54444e-014
rhumerus -28.1427 20.2389 -97.8243
rradius 62.9656
rwrist 9.75869
rhand -31.825 -32.8735
rfingers 7.12502
rthumb -5.07978 -62.7926
lclavicle 5.56597e-014 2.54444e-014
lhumerus 19.4912 23.8507 68.0289
lradius 64.6668
lwrist -17.4081
lhand -23.1656 23.7274
lfingers 7.12502
lthumb 3.28316 53.6819
rfemur -21.4537 -18.8495 29.8492
rtibia 86.6497
rfoot -8.55354 -24.9775
rtoes 12.7035
lfemur -57.5541 1.78305 6.53626
ltibia 60.1507
lfoot -12.0473 -17.0017
ltoes -16.7951
231
root -6.92136 15.0494 5.20228 23.5318 -68.0983 -18.3859
lowerback 19.0288 1.72708 -3.57593
upperback 6.64331 0.914087 -5.37557
thorax -3.45635 0.297055 -3.89129
lowerneck -13.6147 -5.11817 -13.6668
upperneck -0.398197 -5.12429 9.27104
head 2.64766 -2.29484 4.70873
rclavicle 3.18055e-014 2.38542e-014
rhumerus -27.2058 18.6336 -96.7158
rradius 61.3331
rwrist 8.65773
rhand -30.2369 -33.4773
rfingers 7.12502
rthumb -3.54627 -63.4275
lclavicle 3.18055e-014 2.38542e-014
lhumerus 17.9282 23.252 69.5952
lradius 66.8487
lwrist -17.6861
lhand -23.4526 24.0259
lfingers 7.12502
lthumb 3.00601 53.9845
rfemur -22.8462 -19.0398 29.6394
rtibia 88.1832
rfoot -9.44639 -24.9762
rtoes 13.2614
lfemur -57.6563 1.84576 6.5666
ltibia 60.7505
lfoot -12.7608 -17.1319
ltoes -16.9742
232
root -7.06209 15.0389 5.18978 23.4634 -67.9019 -18.1503
lowerback 19.2858 1.76537 -3.56545
upperback 6.70547 0.95163 -5.29645
thorax -3.52289 0.313846 -3.82724
lowerneck -13.6515 -5.28599 -13.6541
upperneck -0.624716 -5.34856 9.40961
head 2.61501 -2.40084 4.73367
rclavicle -1.59028e-015 7.95139e-015
rhumerus -26.2835 16.9381 -95.6147
rradius 59.7904
rwrist 7.43684
rhand -28.3704 -34.1534
rfingers 7.12502
rthumb -1.74367 -64.126
lclavicle -1.59028e-015 7.95139e-015
lhumerus 16.163 22.5751 71.0477
lradius 68.9538
lwrist -17.9012
lhand -23.8086 24.3492
lfingers 7.12502
lthumb 2.66223 54.3123
rfemur -24.3176 -19.0385 29.357
rtibia 89.579
rfoot -10.4431 -25.3048
rtoes 13.7316
lfemur -57.6387 1.95537 6.65859
ltibia 61.2505
lfoot -13.5163 -17.1287
ltoes -17.272
233
root -7.19996 15.0342 5.1777 23.4884 -67.8421 -18.0106
lowerback 19.5306 1.81571 -3.54708
upperback 6.75356 1.00651 -5.2156
thorax -3.59717 0.339164 -3.76971
lowerneck -13.7075 -5.43784 -13.6163
upperneck -0.832864 -5.5522 9.52152
head 2.58715 -2.49749 4.74732
rclavicle -2.70347e-014 -2.38542e-014
rhumerus -25.4136 15.1509 -94.5165
rradius 58.4288
rwrist 6.06692
rhand -26.2981 -34.855
rfingers 7.12502
rthumb 0.257864 -64.8346
lclavicle -2.70347e-014 -2.38542e-014
lhumerus 14.1999 21.7837 72.3734
lradius 70.9546
lwrist -18.02
lhand -24.2485 24.7279
lfingers 7.12502
lthumb 2.23738 54.6959
rfemur -25.8135 -18.8985 28.9596
rtibia 90.8095
rfoot -11.3876 -25.7731
rtoes 14.1689
lfemur -57.4904 2.04815 6.7893
ltibia 61.649
lfoot -14.3045 -17.0005
ltoes -17.673
234
root -7.33449 15.034 5.16539 23.5797 -67.9182 -17.9306
lowerback 19.7668 1.87307 -3.52395
upperback 6.7807 1.07053 -5.14313
thorax -3.68876 0.369091 -3.72641
lowerneck -13.7759 -5.57058 -13.5562
upperneck -1.02897 -5.73193 9.61887
head 2.56116 -2.5828 4.75437
rclavicle -1.90833e-014 1.43125e-014
rhumerus -24.6482 13.2923 -93.4411
rradius 57.3509
rwrist 4.55571
rhand -24.222 -35.5946
rfingers 7.12502
rthumb 2.26293 -65.5624
lclavicle -1.90833e-014 1.43125e-014
lhumerus 12.0454 20.8425 73.5455
lradius 72.8293
lwrist -18.007
lhand -24.7537 25.1639
lfingers 7.12502
lthumb 1.7494 55.1365
rfemur -27.3476 -18.6276 28.4303
rtibia 91.8798
rfoot -12.2575 -26.2443
rtoes 14.4127
lfemur -57.2349 2.11872 6.9442
ltibia 61.9614
lfoot -15.1189 -16.7372
ltoes -18.1766
235
root -7.46623 15.0378 5.15253 23.6814 -68.1129 -17.8619
lowerback 20.0023 1.93223 -3.5097
upperback 6.79039 1.13404 -5.07653
thorax -3.79868 0.398727 -3.68498
lowerneck -13.8473 -5.67961 -13.4784
upperneck -1.22426 -5.88193 9.70478
head 2.53164 -2.65392 4.75733
rclavicle 1.27222e-014 1.59028e-014
rhumerus -24.0348 11.4178 -92.3966
rradius 56.6473
rwrist 2.94277
rhand -22.3994 -36.3929
rfingers 7.12502
rthumb 4.02311 -66.3346
lclavicle 1.27222e-014 1.59028e-014
lhumerus 9.7181 19.7288 74.569
lradius 74.5587
lwrist -17.8423
lhand -25.2656 25.6502
lfingers 7.12502
lthumb 1.25506 55.6262
rfemur -28.8983 -18.2602 27.7492
rtibia 92.7738
rfoot -13.049 -26.5961
rtoes 14.3381
lfemur -56.8779 2.14211 7.10655
ltibia 62.192
lfoot -15.9415 -16.3444
ltoes -18.7409
236
root -7.59568 15.0451 5.13901 23.7506 -68.4107 -17.7646
lowerback 20.2362 1.98755 -3.50968
upperback 6.78925 1.18899 -5.01498
thorax -3.91994 0.424005 -3.63946
lowerneck -13.9241 -5.76546 -13.3919
upperneck -1.42119 -6.00137 9.78427
head 2.49856 -2.71018 4.75931
rclavicle -1.59028e-015 9.54166e-015
rhumerus -23.6052 9.59676 -91.3899
rradius 56.3824
rwrist 1.34287
rhand -21.074 -37.2576
rfingers 7.12502
rthumb 5.30287 -67.1713
lclavicle -1.59028e-015 9.54166e-015
lhumerus 7.26022 18.4337 75.4756
lradius 76.1234
lwrist -17.523
lhand -25.716 26.1421
lfingers 7.12502
lthumb 0.820011 56.1203
rfemur -30.4512 -17.8324 26.9037
rtibia 93.4838
rfoot -13.773 -26.7598
rtoes 13.9196
lfemur -56.4275 2.09978 7.26078
ltibia 62.3481
lfoot -16.7665 -15.8051
ltoes -19.391
237
root -7.72374 15.0555 5.12432 23.7805 -68.7989 -17.6395
lowerback 20.4687 2.03639 -3.52855
upperback 6.78084 1.23167 -4.95129
thorax -4.04914 0.443083 -3.5784
lowerneck -14.0038 -5.82426 -13.2974
upperneck -1.62287 -6.08505 9.85274
head 2.45976 -2.74921 4.75955
rclavicle 7.95139e-015 5.40694e-014
rhumerus -23.373 7.90938 -90.4287
rradius 56.5775
rwrist -0.0820678
rhand -20.4067 -38.1605
rfingers 7.12502
rthumb 5.94717 -68.057
lclavicle 7.95139e-015 5.40694e-014
lhumerus 4.70879 16.9712 76.3118
lradius 77.5162
lwrist -17.0797
lhand -26.0334 26.5905
lfingers 7.12502
lthumb 0.513449 56.5696
rfemur -31.9897 -17.3714 25.9056
rtibia 93.9972
rfoot -14.4168 -26.7296
rtoes 13.1119
lfemur -55.8813 1.99305 7.40743
ltibia 62.4299
lfoot -17.5756 -15.1317
ltoes -20.0892
238
root -7.85169 15.069 5.10808 23.7447 -69.252 -17.4762
lowerback 20.6944 2.07289 -3.57088
upperback 6.78109 1.25493 -4.87581
thorax -4.16701 0.452214 -3.48632
lowerneck -14.0939 -5.85387 -13.1937
upperneck -1.82955 -6.12921 9.90246
head 2.41553 -2.76921 4.7556
rclavicle 2.54444e-014 4.45278e-014
rhumerus -23.321 6.41552 -89.5144
rradius 57.2169
rwrist -1.13582
rhand -20.3521 -39.0314
rfingers 7.12502
rthumb 5.99993 -68.9265
lclavicle 2.54444e-014 4.45278e-014
lhumerus 2.1153 15.3849 77.1382
lradius 78.7334
lwrist -16.5897
lhand -26.1361 26.902
lfingers 7.12502
lthumb 0.414277 56.8813
rfemur -33.4759 -16.9193 24.7684
rtibia 94.2932
rfoot -14.9769 -26.5361
rtoes 11.9733
lfemur -55.2284 1.81041 7.54457
ltibia 62.4322
lfoot -18.3606 -14.3524
ltoes -20.8076
